<svg id="mail-send" xmlns="http://www.w3.org/2000/svg" width="116.388" height="59" viewBox="0 0 116.388 59">
  <path id="Path_248" data-name="Path 248" d="M146.423,144.212c.044-.009.086-.021.13-.032s.074-.017.11-.028.083-.029.124-.043.073-.025.109-.04.076-.035.114-.053.074-.034.11-.053.07-.041.1-.062.072-.042.107-.065.072-.053.108-.079.061-.044.091-.068c.055-.045.106-.093.157-.142l.028-.025c.009-.009.017-.02.027-.03.048-.05.1-.1.14-.155.026-.032.048-.065.073-.1s.051-.066.074-.1.047-.076.07-.114.04-.064.058-.1.038-.079.057-.118.034-.07.049-.106.029-.078.043-.117.029-.076.04-.115.021-.08.031-.12.021-.079.029-.119.015-.1.022-.143.011-.067.014-.1a2.514,2.514,0,0,0,.013-.252V87.784a2.524,2.524,0,0,0-2.524-2.524H66.423c-.022,0-.044,0-.066,0-.048,0-.1,0-.144.007s-.076.007-.113.012-.086.012-.129.02-.08.015-.119.025-.08.02-.12.031-.078.023-.116.036-.079.028-.117.043-.073.029-.108.045-.079.037-.118.057-.066.035-.1.053-.077.046-.115.07l-.092.062c-.036.025-.071.051-.106.079s-.063.051-.093.078-.06.053-.09.081-.065.065-.1.1c-.016.017-.033.032-.048.049s-.016.021-.025.031c-.032.037-.061.075-.091.114s-.044.057-.064.085-.05.076-.075.115-.04.064-.059.1-.04.076-.059.115-.036.071-.051.107-.031.077-.045.116-.029.076-.042.114-.023.078-.033.117-.022.08-.031.121-.014.077-.021.115-.015.088-.02.131-.006.073-.009.11-.006.094-.007.142c0,.014,0,.027,0,.041v15.566a2.524,2.524,0,1,0,5.048,0v-9.96l22.441,19.868a2.549,2.549,0,0,0-.335.278L68.946,135.642V119.055a2.524,2.524,0,0,0-5.048,0v3.084H50.857a2.524,2.524,0,0,0,0,5.048H63.9v14.549a2.524,2.524,0,0,0,2.524,2.524H145.93c.083,0,.166,0,.249-.012.039,0,.076-.011.114-.016S146.38,144.22,146.423,144.212Zm-3.017-8.569L121.3,113.536c-.014-.014-.029-.026-.044-.039l16.619-14.1a2.524,2.524,0,1,0-3.266-3.849l-28.4,24.093L73.081,90.308h70.325ZM94.623,117.106a2.515,2.515,0,0,0,.44-.594l9.44,8.358a2.524,2.524,0,0,0,3.307.035l9.621-8.162a2.537,2.537,0,0,0,.3.363l22.106,22.106H72.516Z" transform="translate(-32.067 -85.26)" fill="#fff"/>
  <path id="Path_249" data-name="Path 249" d="M2.524,160.724H45.153a2.524,2.524,0,1,0,0-5.048H2.524a2.524,2.524,0,1,0,0,5.048Z" transform="translate(0 -131.978)" fill="#fff"/>
  <path id="Path_250" data-name="Path 250" d="M15.649,119.393H34.79a2.524,2.524,0,0,0,0-5.048H15.649a2.524,2.524,0,0,0,0,5.048Z" transform="translate(-8.708 -104.557)" fill="#fff"/>
  <path id="Path_251" data-name="Path 251" d="M21.034,226.51H2.524a2.524,2.524,0,0,0,0,5.048h18.51a2.524,2.524,0,0,0,0-5.048Z" transform="translate(0 -178.974)" fill="#fff"/>
</svg>
