<svg xmlns="http://www.w3.org/2000/svg" width="59.719" height="20.29" viewBox="0 0 59.719 20.29">
  <path id="TRAINING_CENTRE_copy" data-name="TRAINING CENTRE copy" d="M19.523,3.058h3.069V6.123H19.523ZM22.595,0h3.053V3.061H22.595ZM2.989,11.83a1.983,1.983,0,1,1,3.962,0,1.958,1.958,0,0,1-1.985,2.02,1.92,1.92,0,0,1-1.978-2.02ZM.012,20.29H2.686V15.015a3.326,3.326,0,0,0,2.759,1.22A3.967,3.967,0,0,0,8.367,15,4.328,4.328,0,0,0,9.6,11.774,4.258,4.258,0,0,0,8.367,8.607,3.967,3.967,0,0,0,5.445,7.369,3.243,3.243,0,0,0,2.686,8.607V7.664H.012ZM10.339,7.664v8.419h2.679V7.664ZM13.4,16.082h2.959L18.2,13.451l1.821,2.629H22.98l-3.364-4.633,2.832-3.783H19.487L18.219,9.426,16.932,7.664H13.955l2.832,3.783Zm15.623-2.832a2.264,2.264,0,0,1-1.875.8,1.943,1.943,0,0,1-2.114-1.42h6.287c.018-.291.038-.546.038-.783a4.284,4.284,0,0,0-1.268-3.222,4.219,4.219,0,0,0-3.125-1.256,4.463,4.463,0,0,0-3.2,1.218,4.176,4.176,0,0,0-1.287,3.186A4.286,4.286,0,0,0,23.771,15a4.477,4.477,0,0,0,3.2,1.238,4.417,4.417,0,0,0,3.915-1.729Zm-3.951-2.2c.4-1.948,3.455-1.929,3.712,0Zm7.085,5.034h2.667V3.07H32.16Zm3.82,0h2.7V3.07h-2.7v13.01Zm13.025,0V7.664h-2.48V8.5a3.147,3.147,0,0,0-2.5-1.128,4.35,4.35,0,0,0-3.051,1.238,4.138,4.138,0,0,0-1.323,3.186A4.178,4.178,0,0,0,40.974,15a4.332,4.332,0,0,0,3.051,1.22,3.669,3.669,0,0,0,1.36-.291,2.3,2.3,0,0,0,1.14-.837v.993H49Zm-4.557-2.266a2.219,2.219,0,0,1-1.507-.564,1.9,1.9,0,0,1-.643-1.456,1.857,1.857,0,0,1,.645-1.438,2.236,2.236,0,0,1,1.507-.582,2.021,2.021,0,1,1,0,4.042ZM11.675,20.239V18.353h.681v-.435H10.488v.435h.685v1.886h.5Zm3.777,0-.53-.884a.672.672,0,0,0,.516-.689.729.729,0,0,0-.79-.748H13.554V20.24h.5v-.825h.365l.459.825h.574Zm-.874-1.259h-.527v-.627h.527a.315.315,0,1,1,0,.627Zm4.295,1.259-.9-2.321h-.626l-.9,2.321h.565l.147-.393h1l.147.393Zm-.85-.828h-.732l.365-1Zm2.443.828V17.918h-.5v2.321Zm3.437,0V17.918h-.5v1.458l-1.089-1.458H21.8v2.321h.5V18.725l1.117,1.514H23.9Zm1.839,0V17.918h-.5v2.321Zm3.437,0V17.918h-.5v1.458L27.6,17.918h-.515v2.321h.5V18.725l1.117,1.514h.481Zm2.475.042a1.3,1.3,0,0,0,.995-.435v-.891H31.532v.432h.619v.278a.783.783,0,0,1-.5.178.763.763,0,0,1,0-1.524.674.674,0,0,1,.555.3l.411-.223a1.1,1.1,0,0,0-.968-.519,1.2,1.2,0,1,0,0,2.4Zm5.184,0a1.074,1.074,0,0,0,.976-.571l-.428-.205a.634.634,0,0,1-.548.338.763.763,0,0,1,0-1.524.634.634,0,0,1,.548.338l.428-.209a1.065,1.065,0,0,0-.976-.567,1.2,1.2,0,1,0,0,2.4Zm3.809-.042V19.8H39.488v-.529h1.134V18.84H39.488v-.487h1.158v-.435H38.989v2.321h1.657Zm3.363,0V17.918h-.5v1.458l-1.085-1.458h-.512v2.321h.5V18.725l1.116,1.514h.481Zm2.383,0V18.353h.682v-.435H45.207v.435h.685v1.886h.5Zm3.777,0-.53-.884a.673.673,0,0,0,.516-.689.729.729,0,0,0-.79-.748h-1.1V20.24h.5v-.825h.365l.459.825h.574ZM49.3,18.98H48.77v-.627H49.3a.315.315,0,1,1,0,.627Zm3.767,1.26V19.8H51.9v-.529h1.134V18.84H51.9v-.487h1.159v-.435H51.406v2.321h1.657Zm.055-8.619a1.983,1.983,0,1,0,3.962,0A1.958,1.958,0,0,0,55.1,9.6a1.92,1.92,0,0,0-1.977,2.02ZM50.141,3.049h2.674V8.435a3.326,3.326,0,0,1,2.759-1.22A3.966,3.966,0,0,1,58.5,8.453a4.327,4.327,0,0,1,1.231,3.222A4.257,4.257,0,0,1,58.5,14.843a3.966,3.966,0,0,1-2.922,1.238,3.243,3.243,0,0,1-2.759-1.238v1.225H50.141V3.048Z" transform="translate(-0.012)" fill-rule="evenodd"/>
</svg>
